<?xml version="1.0" encoding="utf-8"?>
<!DOCTYPE svg PUBLIC "-//W3C//DTD SVG 1.1//EN" "http://www.w3.org/Graphics/SVG/1.1/DTD/svg11.dtd">
<svg version="1.1" id="Layer_1" xmlns="http://www.w3.org/2000/svg" xmlns:xlink="http://www.w3.org/1999/xlink" x="0px" y="0px"
	 width="482.556px" height="209.281px" viewBox="45.002 196.466 482.556 240"
	 enable-background="new 45.002 196.466 482.556 209.281" xml:space="preserve">
<path fill="#EC2854" stroke="#EC2854" stroke-miterlimit="10" d="M217.198,232.5c-16.597,6.907-52.729,34.028-36.249,58.467
	c7.288,10.807,19.94,18.442,31.471,22.057c10.732,3.363,23.897-0.761,33.709,3.721c-2.09,5.103-9.479,23.689-15.812,22.319
	c-11.827-2.544-23.787-0.445-33.07,8.485c-18.958-26.295-45.97-36.974-75.739-29.676c22.066-27.2,16.719-55.687-6.468-81.622
	c-13.999-15.657-47.993-37.963-69.845-28.853C99.786,184.66,166.314,201.843,217.198,232.5
	C208.383,236.169,213.581,230.321,217.198,232.5z"/>
<path fill="#EC2854" stroke="#EC2854" stroke-miterlimit="10" d="M355.365,232.5c16.595,6.908,52.729,34.028,36.249,58.467
	c-7.288,10.807-19.939,18.443-31.473,22.059c-10.731,3.365-23.896-0.762-33.712,3.721c2.104,5.112,9.464,23.671,15.812,22.318
	c11.826-2.542,23.789-0.448,33.068,8.484c18.959-26.294,45.974-36.975,75.738-29.676c-22.056-27.206-16.726-55.682,6.471-81.622
	c13.997-15.654,47.995-37.967,69.847-28.854C472.779,184.664,406.249,201.835,355.365,232.5
	C364.182,236.169,358.981,230.32,355.365,232.5z"/>

	<text fill="#FFFFFF" x="225" y="428" font-size="250">π</text>

</svg>
